<svg xmlns="http://www.w3.org/2000/svg" viewBox="-12.02 0 316.83 316.83"><path fill="#20B776" d="M292.8,58.77V0L105.06,0.11C46.85,1.27,0,48.73,0,107.22c0,27.79,10.66,53.03,28.01,72.08l42.23,45.78H32.98C14.77,225.07,0,239.84,0,258.06v58.77l187.74-0.11c58.21-1.16,105.06-48.62,105.06-107.11c0-27.79-10.66-53.03-28.01-72.08l-42.23-45.78h37.26C278.03,91.75,292.8,76.99,292.8,58.77z M212.36,165.42c-26.91,10.65-48.17,32.42-58.11,59.64H140.9c-9.94-27.22-31.2-48.99-58.11-59.64V151.4c26.91-10.6,48.17-32.37,58.11-59.64h13.35c9.94,27.27,31.2,49.04,58.11,59.64V165.42z"/></svg>
