<svg xmlns="http://www.w3.org/2000/svg" width="1200" height="630" viewBox="0 0 1200 630"><defs><linearGradient id="g" x1="0" y1="0" x2="1" y2="1"><stop offset="0" stop-color="#064E3B"/><stop offset="1" stop-color="#047857"/></linearGradient></defs><rect width="1200" height="630" fill="url(#g)"/><circle cx="1120" cy="60" r="220" fill="#ffffff" opacity="0.05"/><circle cx="90" cy="580" r="260" fill="#ffffff" opacity="0.05"/><g transform="translate(240,246) scale(1.97)"><path fill="#34D399" d="M64.31,12.91V0L23.07,0.02C10.29,0.28,0,10.7,0,23.55c0,6.1,2.34,11.65,6.15,15.83l9.28,10.05H7.24c-4,0-7.24,3.24-7.24,7.24v12.91l41.24-0.02c12.78-0.26,23.07-10.68,23.07-23.53c0-6.1-2.34-11.65-6.15-15.83l-9.28-10.05h8.18C61.07,20.15,64.31,16.91,64.31,12.91z M46.64,36.33c-5.91,2.34-10.58,7.12-12.76,13.1h-2.93c-2.18-5.98-6.85-10.76-12.76-13.1v-3.08c5.91-2.33,10.58-7.11,12.76-13.1h2.93c2.18,5.99,6.85,10.77,12.76,13.1V36.33z"/><g fill="#FFFFFF"><path d="M91.38,54.47c-3.08,0-5.9-0.66-8.48-1.97c-2.58-1.31-4.72-3.45-6.42-6.42l6.73-4.28c1,2,2.26,3.46,3.78,4.36c1.52,0.91,3.13,1.36,4.84,1.36c1.81,0,3.24-0.41,4.28-1.22c1.04-0.81,1.56-1.89,1.56-3.22c0-1.3-0.41-2.33-1.22-3.11c-0.82-0.78-1.9-1.41-3.25-1.89c-1.35-0.48-2.83-0.93-4.42-1.33c-3-0.78-5.39-2.07-7.17-3.86c-1.78-1.8-2.67-4.16-2.67-7.09c0-2.33,0.57-4.37,1.72-6.11c1.15-1.74,2.75-3.09,4.81-4.06s4.46-1.45,7.2-1.45c3.04,0,5.58,0.63,7.61,1.89c2.04,1.26,3.78,3.04,5.23,5.34l-6.67,4.11c-0.93-1.52-1.89-2.63-2.89-3.33c-1-0.7-2.22-1.06-3.67-1.06c-1.56,0-2.84,0.39-3.86,1.17c-1.02,0.78-1.53,1.82-1.53,3.11c0,1.45,0.6,2.49,1.81,3.14c1.2,0.65,2.66,1.23,4.36,1.75c1.15,0.37,2.44,0.81,3.86,1.31c1.43,0.5,2.81,1.19,4.14,2.06c1.33,0.87,2.43,2.03,3.28,3.47c0.85,1.45,1.28,3.28,1.28,5.5c0,2.33-0.57,4.39-1.72,6.17c-1.15,1.78-2.78,3.17-4.89,4.17C96.88,53.97,94.34,54.47,91.38,54.47z"/><path d="M112.78,22.45c-1.26,0-2.33-0.43-3.2-1.31c-0.87-0.87-1.31-1.92-1.31-3.14c0-1.19,0.44-2.21,1.31-3.08c0.87-0.87,1.94-1.31,3.2-1.31c1.3,0,2.37,0.44,3.22,1.31c0.85,0.87,1.28,1.9,1.28,3.08c0,1.26-0.43,2.32-1.28,3.17C115.15,22.03,114.08,22.45,112.78,22.45z M109.06,53.75v-28.9h7.5v28.9H109.06z"/><path d="M134.18,54.47c-2.63,0-5.03-0.68-7.2-2.03c-2.17-1.35-3.89-3.17-5.17-5.45c-1.28-2.28-1.92-4.81-1.92-7.59c0-2.08,0.37-4.03,1.11-5.86c0.74-1.83,1.76-3.45,3.06-4.84c1.3-1.39,2.81-2.48,4.53-3.28c1.72-0.8,3.59-1.19,5.59-1.19c2.48,0,4.43,0.46,5.84,1.39c1.41,0.93,2.5,2.15,3.28,3.67V13.17h7.5v40.58h-7.28v-4.72c-0.78,1.63-1.88,2.95-3.31,3.95C138.78,53.97,136.77,54.47,134.18,54.47z M135.4,47.69c1.67,0,3.1-0.38,4.31-1.14c1.2-0.76,2.14-1.77,2.81-3.03c0.67-1.26,1-2.63,1-4.11c0-1.52-0.33-2.91-1-4.17s-1.6-2.28-2.81-3.06c-1.2-0.78-2.64-1.17-4.31-1.17c-1.59,0-2.99,0.38-4.2,1.14c-1.2,0.76-2.14,1.77-2.81,3.03c-0.67,1.26-1,2.65-1,4.17c0,1.45,0.33,2.81,1,4.08s1.6,2.31,2.81,3.08C132.41,47.3,133.81,47.69,135.4,47.69z"/><path d="M169.08,54.47c-2.96,0-5.58-0.69-7.84-2.06c-2.26-1.37-4.01-3.2-5.25-5.47c-1.24-2.28-1.86-4.81-1.86-7.59s0.65-5.33,1.95-7.64c1.3-2.32,3.07-4.16,5.31-5.53c2.24-1.37,4.81-2.06,7.7-2.06c2.89,0,5.44,0.69,7.64,2.06c2.2,1.37,3.93,3.21,5.17,5.53c1.24,2.32,1.86,4.86,1.86,7.64c0,0.41-0.02,0.83-0.06,1.28c-0.04,0.44-0.09,0.91-0.17,1.39h-21.62c0.41,1.7,1.23,3.09,2.47,4.17c1.24,1.08,2.81,1.61,4.7,1.61c1.63,0,3.05-0.37,4.25-1.11c1.2-0.74,2.14-1.67,2.81-2.78l5.84,4.39c-1.15,1.82-2.87,3.3-5.17,4.45C174.51,53.89,171.94,54.47,169.08,54.47z M168.97,30.57c-1.78,0-3.3,0.54-4.56,1.61c-1.26,1.08-2.09,2.48-2.5,4.22h14.28c-0.41-1.59-1.25-2.96-2.53-4.11C172.39,31.14,170.83,30.57,168.97,30.57z"/><path d="M206.49,54.47c-2.89,0-5.57-0.52-8.03-1.56c-2.46-1.04-4.61-2.48-6.45-4.33c-1.83-1.85-3.26-3.99-4.28-6.42c-1.02-2.43-1.53-5.03-1.53-7.81c0-2.78,0.49-5.39,1.47-7.84c0.98-2.45,2.37-4.59,4.17-6.45c1.8-1.85,3.94-3.31,6.42-4.36c2.48-1.06,5.23-1.58,8.23-1.58c3.19,0,5.92,0.5,8.2,1.5c2.28,1,4.29,2.54,6.03,4.61l-5.5,4.78c-2.33-2.45-5.24-3.67-8.73-3.67c-2.48,0-4.64,0.59-6.48,1.78c-1.83,1.19-3.25,2.76-4.25,4.72c-1,1.96-1.5,4.13-1.5,6.5c0,2.37,0.5,4.53,1.5,6.48s2.43,3.5,4.28,4.67c1.85,1.17,4.06,1.75,6.61,1.75c1.89,0,3.56-0.31,5-0.95c1.44-0.63,2.74-1.57,3.89-2.83l5.67,4.83c-1.48,1.78-3.46,3.25-5.92,4.42C212.83,53.89,209.9,54.47,206.49,54.47z"/><path d="M235.39,54.47c-2.63,0-5.03-0.68-7.2-2.03c-2.17-1.35-3.89-3.17-5.17-5.45c-1.28-2.28-1.92-4.81-1.92-7.59c0-2.08,0.37-4.03,1.11-5.86c0.74-1.83,1.76-3.45,3.06-4.84c1.3-1.39,2.81-2.48,4.53-3.28c1.72-0.8,3.59-1.19,5.59-1.19c2.52,0,4.48,0.47,5.89,1.42c1.41,0.95,2.5,2.2,3.28,3.75v-4.56h7.45v28.9h-7.28v-4.72c-0.78,1.63-1.88,2.95-3.31,3.95C240,53.97,237.99,54.47,235.39,54.47z M236.62,47.69c1.67,0,3.1-0.38,4.31-1.14c1.2-0.76,2.14-1.77,2.81-3.03c0.67-1.26,1-2.63,1-4.11c0-1.52-0.33-2.91-1-4.17s-1.6-2.28-2.81-3.06c-1.2-0.78-2.64-1.17-4.31-1.17c-1.59,0-2.99,0.38-4.2,1.14c-1.2,0.76-2.14,1.77-2.81,3.03c-0.67,1.26-1,2.65-1,4.17c0,1.45,0.33,2.81,1,4.08s1.6,2.31,2.81,3.08C233.62,47.3,235.02,47.69,236.62,47.69z"/><path d="M266.35,54.47c-4.85,0-8.86-1.69-12.01-5.06l5.06-4.61c2.11,2.37,4.37,3.56,6.78,3.56c1.3,0,2.29-0.29,2.97-0.86c0.69-0.57,1.03-1.29,1.03-2.14c0-0.52-0.12-0.96-0.36-1.33c-0.24-0.37-0.74-0.72-1.5-1.06c-0.76-0.33-1.9-0.67-3.42-1c-2.59-0.63-4.52-1.41-5.78-2.33c-1.26-0.93-2.09-1.96-2.5-3.11c-0.41-1.15-0.61-2.33-0.61-3.56c0-2.52,0.95-4.62,2.86-6.31c1.91-1.69,4.55-2.53,7.92-2.53c2.33,0,4.34,0.35,6,1.06c1.67,0.7,3.24,2.02,4.72,3.95l-5.45,4.17c-0.7-1.11-1.49-1.91-2.36-2.39c-0.87-0.48-1.79-0.72-2.75-0.72c-1.04,0-1.9,0.2-2.58,0.61c-0.69,0.41-1.03,1.06-1.03,1.95c0,0.48,0.22,0.95,0.67,1.42c0.44,0.46,1.52,0.92,3.22,1.36c2.82,0.7,4.96,1.53,6.45,2.47c1.48,0.95,2.5,2.01,3.06,3.2c0.56,1.19,0.83,2.5,0.83,3.95c0,1.78-0.49,3.37-1.47,4.78c-0.98,1.41-2.32,2.52-4,3.33C270.42,54.06,268.5,54.47,266.35,54.47z"/><path d="M280.52,53.75V13.17h7.5v15.67c1.56-3.11,4.46-4.67,8.73-4.67c2.07,0,3.95,0.48,5.61,1.45s2.98,2.33,3.95,4.11c0.96,1.78,1.45,3.89,1.45,6.34v17.67h-7.5V37.91c0-2.52-0.58-4.34-1.72-5.47c-1.15-1.13-2.65-1.7-4.5-1.7c-1.59,0-2.99,0.57-4.2,1.7c-1.2,1.13-1.81,2.96-1.81,5.47v15.84H280.52z"/><path d="M315.93,54.47c-1.44,0-2.64-0.48-3.58-1.45s-1.42-2.11-1.42-3.45c0-1.3,0.47-2.43,1.42-3.39c0.94-0.96,2.14-1.44,3.58-1.44c1.45,0,2.63,0.48,3.56,1.44c0.93,0.96,1.39,2.09,1.39,3.39c0,1.33-0.46,2.48-1.39,3.45C318.56,53.99,317.38,54.47,315.93,54.47z"/><path d="M336.38,54.47c-2.63,0-5.03-0.68-7.2-2.03c-2.17-1.35-3.89-3.17-5.17-5.45c-1.28-2.28-1.92-4.81-1.92-7.59c0-2.08,0.37-4.03,1.11-5.86c0.74-1.83,1.76-3.45,3.06-4.84c1.3-1.39,2.81-2.48,4.53-3.28c1.72-0.8,3.59-1.19,5.59-1.19c2.52,0,4.48,0.47,5.89,1.42c1.41,0.95,2.5,2.2,3.28,3.75v-4.56H353v28.9h-7.28v-4.72c-0.78,1.63-1.88,2.95-3.31,3.95C340.99,53.97,338.98,54.47,336.38,54.47z M337.61,47.69c1.67,0,3.1-0.38,4.31-1.14c1.2-0.76,2.14-1.77,2.81-3.03c0.67-1.26,1-2.63,1-4.11c0-1.52-0.33-2.91-1-4.17s-1.6-2.28-2.81-3.06c-1.2-0.78-2.64-1.17-4.31-1.17c-1.59,0-2.99,0.38-4.2,1.14c-1.2,0.76-2.14,1.77-2.81,3.03c-0.67,1.26-1,2.65-1,4.17c0,1.45,0.33,2.81,1,4.08s1.6,2.31,2.81,3.08C334.61,47.3,336.01,47.69,337.61,47.69z"/><path d="M361.17,22.45c-1.26,0-2.33-0.43-3.2-1.31c-0.87-0.87-1.31-1.92-1.31-3.14c0-1.19,0.44-2.21,1.31-3.08c0.87-0.87,1.94-1.31,3.2-1.31c1.3,0,2.37,0.44,3.22,1.31c0.85,0.87,1.28,1.9,1.28,3.08c0,1.26-0.43,2.32-1.28,3.17C363.54,22.03,362.47,22.45,361.17,22.45z M357.45,53.75v-28.9h7.5v28.9H357.45z"/></g></g></svg>